/* XPM */
static char * door_xpm[] = {
"70 70 86 1",
" 	c #CE30D4",
".	c #AE27B3",
"+	c #000000",
"@	c #080009",
"#	c #150115",
"$	c #230325",
"%	c #340535",
"&	c #400842",
"*	c #500C52",
"=	c #5F1162",
"-	c #6E1571",
";	c #7D1980",
">	c #8C1E91",
",	c #9C22A1",
"'	c #BF2CC4",
")	c #CD30D3",
"!	c #2D042F",
"~	c #701673",
"{	c #C32DC9",
"]	c #6C146F",
"^	c #AF27B5",
"/	c #611164",
"(	c #B629BC",
"_	c #8D1E91",
":	c #CB2FD1",
"<	c #651268",
"[	c #C62ECB",
"}	c #4D0C50",
"|	c #C22DC7",
"1	c #520D55",
"2	c #C52DCA",
"3	c #CC2FD2",
"4	c #AA26AF",
"5	c #C82ECE",
"6	c #C22DC8",
"7	c #BC2BC1",
"8	c #8F1E93",
"9	c #C02CC6",
"0	c #0F0110",
"a	c #BA2AC0",
"b	c #C42DCA",
"c	c #6E1572",
"d	c #6A146D",
"e	c #921F96",
"f	c #831B86",
"g	c #7C1980",
"h	c #5B105E",
"i	c #260327",
"j	c #CA2FD0",
"k	c #AD27B2",
"l	c #AC26B1",
"m	c #5C105F",
"n	c #942099",
"o	c #661369",
"p	c #B429B9",
"q	c #39063B",
"r	c #C92FCF",
"s	c #320533",
"t	c #C12CC7",
"u	c #4F0C51",
"v	c #BC2BC2",
"w	c #5E1061",
"x	c #BA2ABF",
"y	c #4C0B4F",
"z	c #BD2BC2",
"A	c #B228B7",
"B	c #3B073D",
"C	c #911F95",
"D	c #67136A",
"E	c #560E58",
"F	c #8E1E92",
"G	c #A925AE",
"H	c #540E57",
"I	c #8B1D8F",
"J	c #69136C",
"K	c #8A1D8E",
"L	c #C92ECE",
"M	c #631267",
"N	c #510D54",
"O	c #B82ABD",
"P	c #B128B6",
"Q	c #9D22A2",
"R	c #C42DC9",
"S	c #1D021E",
"T	c #300531",
"U	c #6D1570",
"                                                                      ",
"                                                                      ",
"                                                                      ",
"                                                                      ",
"                                                                      ",
"                                                                      ",
"                                                                      ",
"                                                                      ",
"                                                                      ",
"                                                                      ",
"                                                                      ",
"                                                                      ",
"                                                                      ",
"                                                                      ",
"                                                                      ",
"                                                                      ",
"             .++++++++++++@#$%&*=-;>,.')                              ",
"             .+++++++++++++++++++++++++!~,{                           ",
"             .++++++++++++++++++++++++++++@]^                         ",
"             .+++++++++++++++++++++++++++++++/(                       ",
"             .++++++++++++++++++++++++++++++++@_:                     ",
"             .++++++++++++++++++++++++++++++++++<[                    ",
"             .+++++++++++++++++++++++++++++++++++}|                   ",
"             .++++++++++++++++++++++++++++++++++++12                  ",
"             .+++++++++++++++++++++++++++++++++++++<3                 ",
"             .+++++++++++4    5674_<@+++++++++++++++8                 ",
"             .+++++++++++4          9_%+++++++++++++0a                ",
"             .+++++++++++4            bc+++++++++++++d                ",
"             .+++++++++++4             )e+++++++++++++(               ",
"             .+++++++++++4               f++++++++++++g               ",
"             .+++++++++++4               3h+++++++++++ij              ",
"             .+++++++++++4                k++++++++++++l              ",
"             .+++++++++++4                 m+++++++++++_              ",
"             .+++++++++++4                 n+++++++++++o              ",
"             .+++++++++++4                 p+++++++++++q              ",
"             .+++++++++++4                 :++++++++++++r             ",
"             .+++++++++++4                  s+++++++++++t             ",
"             .+++++++++++4                  u+++++++++++v             ",
"             .+++++++++++4                  w+++++++++++x             ",
"             .+++++++++++4                  y+++++++++++z             ",
"             .+++++++++++4                  !+++++++++++t             ",
"             .+++++++++++4                 j++++++++++++j             ",
"             .+++++++++++4                 A+++++++++++B              ",
"             .+++++++++++4                 C+++++++++++D              ",
"             .+++++++++++4                )E+++++++++++F              ",
"             .+++++++++++4                G++++++++++++k              ",
"             .+++++++++++4               :H+++++++++++ij              ",
"             .+++++++++++4               g++++++++++++g               ",
"             .+++++++++++4             )I+++++++++++++(               ",
"             .+++++++++++4            6J+++++++++++++d                ",
"             .+++++++++++4          'K!+++++++++++++0a                ",
"             .+++++++++++4    L674>M@+++++++++++++++8                 ",
"             .+++++++++++++++++++++++++++++++++++++<3                 ",
"             .++++++++++++++++++++++++++++++++++++N2                  ",
"             .+++++++++++++++++++++++++++++++++++u|                   ",
"             .++++++++++++++++++++++++++++++++++o[                    ",
"             .++++++++++++++++++++++++++++++++0F:                     ",
"             .+++++++++++++++++++++++++++++++MO                       ",
"             .++++++++++++++++++++++++++++@-P                         ",
"             .+++++++++++++++++++++++++!~QR                           ",
"             .+++++++++++++0ST&uwU;>Q.')                              ",
"                                                                      ",
"                                                                      ",
"                                                                      ",
"                                                                      ",
"                                                                      ",
"                                                                      ",
"                                                                      ",
"                                                                      ",
"                                                                      "};
