/* XPM */
static char * east_xpm[] = {
"64 64 7 1",
" 	c #07D024",
".	c #05B01D",
"+	c #000000",
"@	c #06C221",
"#	c #05AC1C",
"$	c #002402",
"%	c #01600B",
"                                                                ",
"                                                                ",
"                                                                ",
"                                                                ",
"                                                                ",
"                                                                ",
"                                                                ",
"                                                                ",
"              .+++++++++++++++++++++++++++++++@                 ",
"              .+++++++++++++++++++++++++++++++@                 ",
"              .+++++++++++++++++++++++++++++++@                 ",
"              .+++++++++++++++++++++++++++++++@                 ",
"              .+++++++++++++++++++++++++++++++@                 ",
"              .+++++++++++++++++++++++++++++++@                 ",
"              .+++++++++++++++++++++++++++++++@                 ",
"              .+++++++++++++++++++++++++++++++@                 ",
"              .+++++++++++++++++++++++++++++++@                 ",
"              .+++++++++++#                                     ",
"              .+++++++++++#                                     ",
"              .+++++++++++#                                     ",
"              .+++++++++++#                                     ",
"              .+++++++++++#                                     ",
"              .+++++++++++#                                     ",
"              .+++++++++++#                                     ",
"              .+++++++++++#                                     ",
"              .+++++++++++++++++++++++++++++$                   ",
"              .+++++++++++++++++++++++++++++$                   ",
"              .+++++++++++++++++++++++++++++$                   ",
"              .+++++++++++++++++++++++++++++$                   ",
"              .+++++++++++++++++++++++++++++$                   ",
"              .+++++++++++++++++++++++++++++$                   ",
"              .+++++++++++++++++++++++++++++$                   ",
"              .+++++++++++++++++++++++++++++$                   ",
"              .+++++++++++++++++++++++++++++$                   ",
"              .+++++++++++#                                     ",
"              .+++++++++++#                                     ",
"              .+++++++++++#                                     ",
"              .+++++++++++#                                     ",
"              .+++++++++++#                                     ",
"              .+++++++++++#                                     ",
"              .+++++++++++#                                     ",
"              .+++++++++++#                                     ",
"              .+++++++++++#                                     ",
"              .+++++++++++#                                     ",
"              .+++++++++++++++++++++++++++++++%                 ",
"              .+++++++++++++++++++++++++++++++%                 ",
"              .+++++++++++++++++++++++++++++++%                 ",
"              .+++++++++++++++++++++++++++++++%                 ",
"              .+++++++++++++++++++++++++++++++%                 ",
"              .+++++++++++++++++++++++++++++++%                 ",
"              .+++++++++++++++++++++++++++++++%                 ",
"              .+++++++++++++++++++++++++++++++%                 ",
"              .+++++++++++++++++++++++++++++++%                 ",
"                                                                ",
"                                                                ",
"                                                                ",
"                                                                ",
"                                                                ",
"                                                                ",
"                                                                ",
"                                                                ",
"                                                                ",
"                                                                ",
"                                                                "};
