/* XPM */
static char * north_xpm[] = {
"64 64 65 1",
" 	c #C02323",
".	c #A21C1C",
"+	c #000000",
"@	c #3B0505",
"#	c #BC2222",
"$	c #4C0808",
"%	c #AD1F1F",
"&	c #8C1717",
"*	c #2E0303",
"=	c #B92121",
"-	c #831515",
";	c #1D0101",
">	c #B52020",
",	c #7A1212",
"'	c #0D0000",
")	c #B01F1F",
"!	c #6F1010",
"~	c #AB1E1E",
"{	c #630D0D",
"]	c #A41C1C",
"^	c #570A0A",
"/	c #BF2323",
"(	c #9D1B1B",
"_	c #4A0707",
":	c #BE2323",
"<	c #520909",
"[	c #230202",
"}	c #951919",
"|	c #680E0E",
"1	c #861515",
"2	c #3C0505",
"3	c #BA2222",
"4	c #310303",
"5	c #8E1717",
"6	c #8F1717",
"7	c #2F0303",
"8	c #BD2222",
"9	c #400505",
"0	c #851515",
"a	c #971919",
"b	c #200202",
"c	c #B62121",
"d	c #4D0808",
"e	c #7B1313",
"f	c #9F1B1B",
"g	c #120101",
"h	c #B11F1F",
"i	c #5A0B0B",
"j	c #711010",
"k	c #A61D1D",
"l	c #AC1E1E",
"m	c #670E0E",
"n	c #650D0D",
"o	c #AD1E1E",
"p	c #A51D1D",
"q	c #721111",
"r	c #590A0A",
"s	c #B22020",
"t	c #9E1B1B",
"u	c #7D1313",
"v	c #3F0505",
"w	c #420606",
"x	c #660E0E",
"y	c #721010",
"z	c #7C1313",
"                                                                ",
"                                                                ",
"                                                                ",
"                                                                ",
"                                                                ",
"                                                                ",
"                                                                ",
"                                                                ",
"                                                                ",
"         .++++++++++++@#               $++++++++++%             ",
"         .+++++++++++++&               $++++++++++%             ",
"         .+++++++++++++*=              $++++++++++%             ",
"         .++++++++++++++-              $++++++++++%             ",
"         .++++++++++++++;>             $++++++++++%             ",
"         .+++++++++++++++,             $++++++++++%             ",
"         .+++++++++++++++')            $++++++++++%             ",
"         .++++++++++++++++!            $++++++++++%             ",
"         .+++++++++++++++++~           $++++++++++%             ",
"         .+++++++++++++++++{           $++++++++++%             ",
"         .++++++++++++++++++]          $++++++++++%             ",
"         .++++++++++++++++++^/         $++++++++++%             ",
"         .+++++++++++++++++++(         $++++++++++%             ",
"         .+++++++++++++++++++_:        $++++++++++%             ",
"         .++++++++++<[++++++++}        $++++++++++%             ",
"         .++++++++++|1++++++++2#       $++++++++++%             ",
"         .++++++++++|34++++++++5       $++++++++++%             ",
"         .++++++++++| 6++++++++7=      $++++++++++%             ",
"         .++++++++++| 89++++++++0      $++++++++++%             ",
"         .++++++++++|  a++++++++bc     $++++++++++%             ",
"         .++++++++++|  /d++++++++e     $++++++++++%             ",
"         .++++++++++|   f++++++++gh    $++++++++++%             ",
"         .++++++++++|    i++++++++j    $++++++++++%             ",
"         .++++++++++|    k+++++++++l   $++++++++++%             ",
"         .++++++++++|     m++++++++n   $++++++++++%             ",
"         .++++++++++|     o+++++++++p  $++++++++++%             ",
"         .++++++++++|      q++++++++r  $++++++++++%             ",
"         .++++++++++|      sg++++++++t $++++++++++%             ",
"         .++++++++++|       u++++++++$:$++++++++++%             ",
"         .++++++++++|       c[++++++++a$++++++++++%             ",
"         .++++++++++|        1++++++++vw++++++++++%             ",
"         .++++++++++|        34+++++++++++++++++++%             ",
"         .++++++++++|         6+++++++++++++++++++%             ",
"         .++++++++++|         8v++++++++++++++++++%             ",
"         .++++++++++|          a++++++++++++++++++%             ",
"         .++++++++++|          :$+++++++++++++++++%             ",
"         .++++++++++|           f+++++++++++++++++%             ",
"         .++++++++++|            i++++++++++++++++%             ",
"         .++++++++++|            k++++++++++++++++%             ",
"         .++++++++++|             x+++++++++++++++%             ",
"         .++++++++++|             l+++++++++++++++%             ",
"         .++++++++++|              y++++++++++++++%             ",
"         .++++++++++|              sg+++++++++++++%             ",
"         .++++++++++|               z+++++++++++++%             ",
"         .++++++++++|               c[++++++++++++%             ",
"                                                                ",
"                                                                ",
"                                                                ",
"                                                                ",
"                                                                ",
"                                                                ",
"                                                                ",
"                                                                ",
"                                                                ",
"                                                                "};
