/* XPM */
static char * south_xpm[] = {
"64 64 134 2",
"  	c #577AFF",
". 	c #5070EC",
"+ 	c #4562D0",
"@ 	c #3951AF",
"# 	c #2A3D87",
"$ 	c #223372",
"% 	c #1A285D",
"& 	c #0F1940",
"* 	c #020516",
"= 	c #0C1538",
"- 	c #14204D",
"; 	c #233373",
"> 	c #2D418F",
", 	c #354DA5",
"' 	c #3D56B9",
") 	c #4561CE",
"! 	c #4D6DE5",
"~ 	c #5577F9",
"{ 	c #5375F5",
"] 	c #405BC2",
"^ 	c #20306D",
"/ 	c #000000",
"( 	c #304596",
"_ 	c #405BC1",
": 	c #4C6BE2",
"< 	c #5578FB",
"[ 	c #5679FD",
"} 	c #3F59BE",
"| 	c #09102E",
"1 	c #060C26",
"2 	c #5273F0",
"3 	c #5071ED",
"4 	c #253679",
"5 	c #5172EE",
"6 	c #4F6FE9",
"7 	c #32489C",
"8 	c #4E6DE6",
"9 	c #354CA3",
"0 	c #182556",
"a 	c #3A53B2",
"b 	c #4866D8",
"c 	c #5070EB",
"d 	c #5476F7",
"e 	c #5678FC",
"f 	c #5475F6",
"g 	c #5172EF",
"h 	c #4D6DE6",
"i 	c #3B54B4",
"j 	c #2F4494",
"k 	c #3C55B6",
"l 	c #5679FC",
"m 	c #415CC4",
"n 	c #050A22",
"o 	c #4E6EE7",
"p 	c #364DA6",
"q 	c #5375F6",
"r 	c #425EC8",
"s 	c #283B82",
"t 	c #5578FA",
"u 	c #5273F1",
"v 	c #3D57BA",
"w 	c #425DC7",
"x 	c #5779FE",
"y 	c #4765D5",
"z 	c #1B2A60",
"A 	c #3D57B9",
"B 	c #5374F4",
"C 	c #0E183D",
"D 	c #2B3F8A",
"E 	c #4866D7",
"F 	c #5274F2",
"G 	c #223271",
"H 	c #182658",
"I 	c #304698",
"J 	c #405CC3",
"K 	c #577AFE",
"L 	c #435FC9",
"M 	c #15214F",
"N 	c #364EA7",
"O 	c #4B6ADF",
"P 	c #1F2F6A",
"Q 	c #4461CD",
"R 	c #4C6CE3",
"S 	c #4D6CE4",
"T 	c #04081C",
"U 	c #435EC8",
"V 	c #4B69DE",
"W 	c #131E49",
"X 	c #4663D2",
"Y 	c #374EA9",
"Z 	c #0B1435",
"` 	c #4F6FEA",
" .	c #3952AF",
"..	c #131F4B",
"+.	c #3850AC",
"@.	c #20306C",
"#.	c #5274F3",
"$.	c #4764D4",
"%.	c #26387C",
"&.	c #3E58BD",
"*.	c #4B6ADE",
"=.	c #3B55B5",
"-.	c #2B3F8B",
";.	c #01030D",
">.	c #344BA2",
",.	c #4A68DC",
"'.	c #5071EE",
").	c #344BA1",
"!.	c #3850AD",
"~.	c #243577",
"{.	c #334A9F",
"].	c #4D6CE3",
"^.	c #21316E",
"/.	c #213170",
"(.	c #4664D3",
"_.	c #1A275C",
":.	c #334AA0",
"<.	c #415DC5",
"[.	c #5477F8",
"}.	c #4E6EE8",
"|.	c #2F4595",
"1.	c #121D47",
"2.	c #3F5ABF",
"3.	c #0A1232",
"4.	c #4460CC",
"5.	c #2E4291",
"6.	c #5476F6",
"7.	c #26397E",
"8.	c #5678FB",
"9.	c #3D57BB",
"0.	c #293C84",
"a.	c #1B295F",
"b.	c #070E2A",
"c.	c #2B3E89",
"                                                                                                                                ",
"                                                                                                                                ",
"                                                                                                                                ",
"                                                                                                                                ",
"                                                                                                                                ",
"                                                                                                                                ",
"                                                                                                                                ",
"                                                              . + @ # $ % & * = - % ; > , ' ) ! ~                               ",
"                                                        { ] ^ / / / / / / / / / / / / / / / / / / % ( _ : <                     ",
"                                                    [ } | / / / / / / / / / / / / / / / / / / / / / / / / 1 2                   ",
"                                                  3 4 / / / / / / / / / / / / / / / / / / / / / / / / / / / 5                   ",
"                                                6 - / / / / / / / / / / / / / / / / / / / / / / / / / / / / 5                   ",
"                                              { % / / / / / / / / / / / / / / / / / / / / / / / / / / / / / 5                   ",
"                                              7 / / / / / / / / / / / / / / / / / / / / / / / / / / / / / / 5                   ",
"                                            8 / / / / / / / / / / / / / / / / / / / / / / / / / / / / / / / 5                   ",
"                                            9 / / / / / / / / / / / 0 a b c d e [ f g h + i j - / / / / / / 5                   ",
"                                          [ & / / / / / / / / / / k l                           6 m > n / / 5                   ",
"                                          o / / / / / / / / / / p                                     q r s g                   ",
"                                          + / / / / / / / / / / 6                                                               ",
"                                          } / / / / / / / / / / t                                                               ",
"                                          k / / / / / / / / / / u                                                               ",
"                                          v / / / / / / / / / / v                                                               ",
"                                          w / / / / / / / / / / * m x                                                           ",
"                                          y / / / / / / / / / / / / z A 8 x                                                     ",
"                                          B / / / / / / / / / / / / / / / C D k E F                                             ",
"                                            G / / / / / / / / / / / / / / / / / / / H I J o K                                   ",
"                                            L / / / / / / / / / / / / / / / / / / / / / / / M N O                               ",
"                                            e % / / / / / / / / / / / / / / / / / / / / / / / / / P Q [                         ",
"                                              R 1 / / / / / / / / / / / / / / / / / / / / / / / / / / G S                       ",
"                                                ) T / / / / / / / / / / / / / / / / / / / / / / / / / / n U                     ",
"                                                  V W / / / / / / / / / / / / / / / / / / / / / / / / / / / X                   ",
"                                                    { Y T / / / / / / / / / / / / / / / / / / / / / / / / / Z `                 ",
"                                                        3  .../ / / / / / / / / / / / / / / / / / / / / / / / j                 ",
"                                                            e b +.@./ / / / / / / / / / / / / / / / / / / / / / `               ",
"                                                                    #.$. .%.n / / / / / / / / / / / / / / / / / &.              ",
"                                                                            < *.=.^ / / / / / / / / / / / / / / -.              ",
"                                                                                    h I / / / / / / / / / / / / W               ",
"                                                                                        ) ;./ / / / / / / / / / ;.x             ",
"                                                                                          >./ / / / / / / / / / / f             ",
"                                                                                          ,./ / / / / / / / / / / {             ",
"                                                                                          3 / / / / / / / / / / / t             ",
"                                          '.).u                                           o / / / / / / / / / / &               ",
"                                          3 / | !.u                                       m / / / / / / / / / / ~.              ",
"                                          3 / / / n {.].                                f H / / / / / / / / / / N               ",
"                                          3 / / / / / / ^.&.c                         ` /./ / / / / / / / / / / (.              ",
"                                          3 / / / / / / / / / _.:.<.V '.[.[ [ d }.) |.* / / / / / / / / / / / = ~               ",
"                                          3 / / / / / / / / / / / / / / / / / / / / / / / / / / / / / / / / / @                 ",
"                                          3 / / / / / / / / / / / / / / / / / / / / / / / / / / / / / / / / 1.{                 ",
"                                          3 / / / / / / / / / / / / / / / / / / / / / / / / / / / / / / / / (.                  ",
"                                          3 / / / / / / / / / / / / / / / / / / / / / / / / / / / / / / / 2.                    ",
"                                          './ / / / / / / / / / / / / / / / / / / / / / / / / / / / / 3.4.                      ",
"                                            5 m # T / / / / / / / / / / / / / / / / / / / / / / / / 5..                         ",
"                                                  6.$. .7.1 / / / / / / / / / / / / / / / / / M Y }.                            ",
"                                                          8.S + 9.>.0.^.a.W b.* | ..@.c.Y w o x                                 ",
"                                                                                                                                ",
"                                                                                                                                ",
"                                                                                                                                ",
"                                                                                                                                ",
"                                                                                                                                ",
"                                                                                                                                ",
"                                                                                                                                ",
"                                                                                                                                ",
"                                                                                                                                ",
"                                                                                                                                "};
