/* XPM */
static char * west_xpm[] = {
"64 64 167 2",
"  	c #F8EB55",
". 	c #1B1904",
"+ 	c #000000",
"@ 	c #E9DD4F",
"# 	c #AFA539",
"$ 	c #4B4614",
"% 	c #857E2A",
"& 	c #787125",
"* 	c #CABF44",
"= 	c #7D7627",
"- 	c #E5D94E",
"; 	c #F6E954",
"> 	c #33300B",
", 	c #ACA338",
"' 	c #A39A35",
") 	c #F4E754",
"! 	c #252206",
"~ 	c #C5BB42",
"{ 	c #DED24B",
"] 	c #655F1D",
"^ 	c #D1C646",
"/ 	c #69631F",
"( 	c #DACE4A",
"_ 	c #9D9432",
": 	c #BCB23E",
"< 	c #A09834",
"[ 	c #EFE252",
"} 	c #EEE151",
"| 	c #B8AE3D",
"1 	c #5F591B",
"2 	c #90882E",
"3 	c #C8BD43",
"4 	c #6A641F",
"5 	c #D0C546",
"6 	c #8A822B",
"7 	c #EBDF50",
"8 	c #474312",
"9 	c #E7DB4F",
"0 	c #A39B35",
"a 	c #ABA138",
"b 	c #F7EA55",
"c 	c #3B380E",
"d 	c #CDC245",
"e 	c #E3D74D",
"f 	c #504C16",
"g 	c #CBC044",
"h 	c #766F24",
"i 	c #E1D54C",
"j 	c #A79E36",
"k 	c #C3B841",
"l 	c #958D30",
"m 	c #EADD50",
"n 	c #151302",
"o 	c #F2E553",
"p 	c #C0B640",
"q 	c #706A22",
"r 	c #999131",
"s 	c #5A5519",
"t 	c #D6CB48",
"u 	c #0C0B01",
"v 	c #F1E452",
"w 	c #575218",
"x 	c #9B9332",
"y 	c #B3A93B",
"z 	c #524D16",
"A 	c #D4C947",
"B 	c #C4BA41",
"C 	c #827B29",
"D 	c #B0A73A",
"E 	c #E4D84D",
"F 	c #2D2A08",
"G 	c #F5E854",
"H 	c #C7BD43",
"I 	c #847D29",
"J 	c #7E7727",
"K 	c #A29934",
"L 	c #494413",
"M 	c #DCD04A",
"N 	c #B4AA3B",
"O 	c #292607",
"P 	c #67611E",
"Q 	c #928A2E",
"R 	c #BAB03D",
"S 	c #D7CC49",
"T 	c #403C10",
"U 	c #DBCF4A",
"V 	c #F4E753",
"W 	c #BDB33F",
"X 	c #8D852C",
"Y 	c #EDE151",
"Z 	c #F2E653",
"` 	c #B8AF3D",
" .	c #7C7526",
"..	c #DFD34B",
"+.	c #CFC446",
"@.	c #8C842C",
"#.	c #36330C",
"$.	c #E2D64D",
"%.	c #AAA137",
"&.	c #3E3A0F",
"*.	c #D3C847",
"=.	c #87802A",
"-.	c #C1B740",
";.	c #756E23",
">.	c #F0E352",
",.	c #B6AC3C",
"'.	c #968E30",
").	c #D6CA48",
"!.	c #6E6721",
"~.	c #D9CE49",
"{.	c #B3AA3B",
"].	c #978F30",
"^.	c #B2A93B",
"/.	c #A69D36",
"(.	c #D7CB48",
"_.	c #544F17",
":.	c #817A28",
"<.	c #CBC144",
"[.	c #837C29",
"}.	c #E8DC4F",
"|.	c #EADE50",
"1.	c #A09734",
"2.	c #F5E954",
"3.	c #302D09",
"4.	c #C9BE43",
"5.	c #635E1D",
"6.	c #DDD14B",
"7.	c #565118",
"8.	c #A19834",
"9.	c #F0E452",
"0.	c #ECE050",
"a.	c #999031",
"b.	c #CEC345",
"c.	c #8F882D",
"d.	c #C2B841",
"e.	c #A89F37",
"f.	c #6B6520",
"g.	c #716B22",
"h.	c #423E10",
"i.	c #A59C36",
"j.	c #ABA238",
"k.	c #ECDF50",
"l.	c #C3B941",
"m.	c #8E862D",
"n.	c #777024",
"o.	c #605B1C",
"p.	c #9A9232",
"q.	c #BAB03E",
"r.	c #EBDE50",
"s.	c #DDD24B",
"t.	c #9E9633",
"u.	c #DCD14B",
"v.	c #5D581B",
"w.	c #C2B740",
"x.	c #C6BC42",
"y.	c #E6DA4E",
"z.	c #C6BB42",
"A.	c #E6D94E",
"B.	c #4F4A15",
"C.	c #F1E553",
"D.	c #948C2F",
"E.	c #BFB540",
"F.	c #CFC445",
"G.	c #B9AF3D",
"H.	c #DBD04A",
"I.	c #807928",
"J.	c #B1A83A",
"                                                                                                                                ",
"                                                                                                                                ",
"                                                                                                                                ",
"                                                                                                                                ",
"                                                                                                                                ",
"                                                                                                                                ",
"                                                                                                                                ",
". + + + + + + + + + + @                             # + + + + + + + + + + $                               % + + + + + + + + + + ",
"& + + + + + + + + + + *                             = + + + + + + + + + + + -                           ; > + + + + + + + + + + ",
", + + + + + + + + + + '                           ) ! + + + + + + + + + + + ~                           { + + + + + + + + + + ] ",
"^ + + + + + + + + + + /                           ( + + + + + + + + + + + + _                           : + + + + + + + + + + < ",
"[ + + + + + + + + + + + }                         | + + + + + + + + + + + + 1                           2 + + + + + + + + + + 3 ",
"  4 + + + + + + + + + + 5                         6 + + + + + + + + + + + + + 7                         8 + + + + + + + + + + 9 ",
"  0 + + + + + + + + + + a                       b c + + + + + + + + + + + + + d                       e + + + + + + + + + + f   ",
"  g + + + + + + + + + + h                       i + + + + + + + + + + + + + + j                       k + + + + + + + + + + l   ",
"  m + + + + + + + + + + n o                     p + + + + + + + + + + + + + + q                       r + + + + + + + + + + p   ",
"    s + + + + + + + + + + t                     l + + + + + + + + + + + + + + u v                     w + + + + + + + + + + i   ",
"    x + + + + + + + + + + y                     z + + + + + + + n + + + + + + + A                   @ + + + + + + + + + + c b   ",
"    B + + + + + + + + + + C                   9 + + + + + + + > 2 + + + + + + + D                   * + + + + + + + + + + 6     ",
"    E + + + + + + + + + + F G                 H + + + + + + + I p + + + + + + + J                   K + + + + + + + + + + |     ",
"      L + + + + + + + + + + M                 < + + + + + + + N i + + + + + + + O )                 P + + + + + + + + + + (     ",
"      Q + + + + + + + + + + R                 ] + + + + + + + S b T + + + + + + + U               } + + + + + + + + + + ! V     ",
"      W + + + + + + + + + + X               Y + + + + + + + . Z   X + + + + + + + `               5 + + + + + + + + + +  .      ",
"      ..+ + + + + + + + + + T b             +.+ + + + + + + &     R + + + + + + + @.              a + + + + + + + + + + #       ",
"      ; #.+ + + + + + + + + + $.            %.+ + + + + + + ,     M + + + + + + + &.b             h + + + + + + + + + + *.      ",
"        =.+ + + + + + + + + + -.            ;.+ + + + + + + 5     G F + + + + + + + i           o . + + + + + + + + + u >.      ",
"        ,.+ + + + + + + + + + '.          o . + + + + + + + }       C + + + + + + + -.          ).+ + + + + + + + + + !.        ",
"        ~.+ + + + + + + + + + f           t + + + + + + + /         {.+ + + + + + + ].          ^.+ + + + + + + + + + /.        ",
"        V ! + + + + + + + + + + 9         y + + + + + + + '         (.+ + + + + + + _.          :.+ + + + + + + + + + <.        ",
"           .+ + + + + + + + + + H         [.+ + + + + + + *         Z . + + + + + + + }.      G F + + + + + + + + + + |.        ",
"          # + + + + + + + + + + 1.      2.3.+ + + + + + + }.          & + + + + + + + 4.      M + + + + + + + + + + s           ",
"          *.+ + + + + + + + + + 5.      6.+ + + + + + + 7.            , + + + + + + + 8.      R + + + + + + + + + + x           ",
"          9.u + + + + + + + + + + 0.    : + + + + + + + a.            ^ + + + + + + + P       @.+ + + + + + + + + + B           ",
"            q + + + + + + + + + + b.    c.+ + + + + + + d.            [ + + + + + + + + }   b T + + + + + + + + + + E           ",
"            j + + + + + + + + + + e.    8 + + + + + + + e               f.+ + + + + + + 5   i + + + + + + + + + + 8             ",
"            d + + + + + + + + + + g.  E + + + + + + + h.b               i.+ + + + + + + j.  p + + + + + + + + + + 2             ",
"            k.+ + + + + + + + + + u v l.+ + + + + + + m.                <.+ + + + + + + n.  '.+ + + + + + + + + + :             ",
"              o.+ + + + + + + + + + A p.+ + + + + + + q.                r.+ + + + + + + . Z z + + + + + + + + + + s.            ",
"              t.+ + + + + + + + + + D s + + + + + + + u.                  v.+ + + + + + + w.+ + + + + + + + + + 3.2.            ",
"              x.+ + + + + + + + + + v.+ + + + + + + F G                   _ + + + + + + + v.+ + + + + + + + + + [.              ",
"              y.+ + + + + + + + + + + + + + + + + + C                     z.+ + + + + + + + + + + + + + + + + + {.              ",
"                f + + + + + + + + + + + + + + + + + ^.                    A.+ + + + + + + + + + + + + + + + + + t               ",
"                l + + + + + + + + + + + + + + + + + ).                      B.+ + + + + + + + + + + + + + + + n o               ",
"                p + + + + + + + + + + + + + + + + n C.                      D.+ + + + + + + + + + + + + + + + h                 ",
"                i + + + + + + + + + + + + + + + + ;.                        E.+ + + + + + + + + + + + + + + + %.                ",
"                b &.+ + + + + + + + + + + + + + + %.                        i + + + + + + + + + + + + + + + + +.                ",
"                  @.+ + + + + + + + + + + + + + + F.                        b &.+ + + + + + + + + + + + + + + Y                 ",
"                  G.+ + + + + + + + + + + + + + + Y                           @.+ + + + + + + + + + + + + + ]                   ",
"                  H.+ + + + + + + + + + + + + + ]                             G.+ + + + + + + + + + + + + + <                   ",
"                  G F + + + + + + + + + + + + + <                             H.+ + + + + + + + + + + + + + H                   ",
"                    I.+ + + + + + + + + + + + + 3                             G F + + + + + + + + + + + + + 9                   ",
"                    J.+ + + + + + + + + + + + + 9                               :.+ + + + + + + + + + + + f                     ",
"                                                                                                                                ",
"                                                                                                                                ",
"                                                                                                                                ",
"                                                                                                                                ",
"                                                                                                                                ",
"                                                                                                                                ",
"                                                                                                                                ",
"                                                                                                                                ",
"                                                                                                                                ",
"                                                                                                                                ",
"                                                                                                                                ",
"                                                                                                                                "};
